<svg id="Layer_1" data-name="Layer 1" xmlns="http://www.w3.org/2000/svg" viewBox="0 0 100 100"><defs><style>.cls-1{fill:#00005b;}.cls-2{fill:#99f;}</style></defs><g id="Layer_2" data-name="Layer 2"><g id="Surfaces"><g id="Video_Audio_Surface" data-name="Video Audio Surface"><g id="Outline_no_shadow" data-name="Outline no shadow"><path class="cls-1" d="M17.63,1.82H81.94A17.61,17.61,0,0,1,99.57,19.45V81.27A17.61,17.61,0,0,1,81.94,98.9H17.63A17.61,17.61,0,0,1,0,81.27V19.45A17.61,17.61,0,0,1,17.63,1.82Z"/></g></g></g><g id="Outlined_Mnemonics_Logos" data-name="Outlined Mnemonics Logos"><g id="Pr"><path class="cls-2" d="M23.65,69.9V27.21c0-.29.12-.46.41-.46.71,0,1.37,0,2.33,0s2,0,3.15-.08,2.32,0,3.61-.09,2.53,0,3.77,0a24.39,24.39,0,0,1,8.55,1.29A14.79,14.79,0,0,1,51,31.19a13.19,13.19,0,0,1,3,4.73A15.93,15.93,0,0,1,55,41.31a14.83,14.83,0,0,1-2.49,8.84,14.18,14.18,0,0,1-6.68,5.06,26.8,26.8,0,0,1-9.33,1.41c-1,0-1.66,0-2.07,0s-1,0-1.79,0V69.86a.51.51,0,0,1-.46.58h-8C23.81,70.44,23.65,70.27,23.65,69.9Zm9-35.14V48.7c.58,0,1.12.08,1.62.08h2.2A15.69,15.69,0,0,0,41.28,48a7.21,7.21,0,0,0,3.4-2.2A6.43,6.43,0,0,0,46,41.56a6.8,6.8,0,0,0-1-3.69,5.94,5.94,0,0,0-2.9-2.36,11.88,11.88,0,0,0-4.9-.83c-1.07,0-2,0-2.82,0a9.83,9.83,0,0,0-1.7,0Z"/><path class="cls-2" d="M60.82,37.17h7.26a.92.92,0,0,1,.87.66,3.86,3.86,0,0,1,.25,1,11.38,11.38,0,0,1,.21,1.28c0,.46.08,1,.08,1.5a15.36,15.36,0,0,1,4.44-3.57,12.86,12.86,0,0,1,6.31-1.62.52.52,0,0,1,.58.46v8.25c0,.33-.21.46-.66.46a18.28,18.28,0,0,0-4.49.41,17.66,17.66,0,0,0-3.48,1.12,6.61,6.61,0,0,0-2.12,1.54V69.86c0,.41-.16.58-.54.58H61.36a.57.57,0,0,1-.66-.5V46.79c0-1,0-2,0-3.11s0-2.16-.09-3.24-.08-1.86-.16-2.82a.37.37,0,0,1,.29-.45c0-.05.08-.05.12,0Z"/></g></g></g></svg>