<svg id="Layer_1" data-name="Layer 1" xmlns="http://www.w3.org/2000/svg" viewBox="0 0 100 100"><defs><style>.cls-1{fill:#470137;}.cls-2{fill:#ff61f6;}</style></defs><g id="Layer_2" data-name="Layer 2"><g id="Surfaces"><g id="UI_UX_Surface" data-name="UI UX Surface"><g id="Outline_no_shadow" data-name="Outline no shadow"><path class="cls-1" d="M18.11,1.85H82.38A17.61,17.61,0,0,1,100,19.47V81.25A17.61,17.61,0,0,1,82.38,98.87H18.11A17.61,17.61,0,0,1,.49,81.25V19.47A17.61,17.61,0,0,1,18.11,1.85Z"/></g></g></g><g id="Outlined_Mnemonics_Logos" data-name="Outlined Mnemonics Logos"><g id="Xd"><path class="cls-2" d="M52.82,27.35,40.38,47.87,53.65,69.64a.73.73,0,0,1,.08.5c0,.16-.21,0-.46.08H43.78c-.66,0-1.12,0-1.41-.46-.87-1.74-1.78-3.44-2.65-5.18s-1.83-3.44-2.82-5.22-2-3.57-3-5.39h-.08C33,55.75,32,57.53,31.05,59.31s-1.91,3.57-2.82,5.31-1.91,3.53-2.86,5.23c-.17.41-.5.45-.95.45H15.3c-.17,0-.3.08-.3-.12a.57.57,0,0,1,.09-.46L28,48.58,15.42,27.31c-.12-.17-.17-.34-.08-.42a.48.48,0,0,1,.41-.16h9.41a2.46,2.46,0,0,1,.58.08,1.22,1.22,0,0,1,.42.37c.79,1.78,1.7,3.57,2.65,5.35s2,3.52,3,5.27,1.9,3.48,2.77,5.26h.09c.87-1.82,1.78-3.61,2.69-5.35s1.87-3.48,2.82-5.22S42,29,43,27.26a.67.67,0,0,1,.25-.41.81.81,0,0,1,.54-.08h8.75a.38.38,0,0,1,.45.29s0,.2-.12.29Z"/><path class="cls-2" d="M72,71.09a20.55,20.55,0,0,1-8.91-1.87,14.42,14.42,0,0,1-6.26-5.64,17.86,17.86,0,0,1-2.28-9.45A17,17,0,0,1,63.39,39a21.16,21.16,0,0,1,10.49-2.41,7.61,7.61,0,0,1,.87,0c.37,0,.79,0,1.29.09V23.57c0-.29.12-.45.41-.45h8.42a.37.37,0,0,1,.41.29V63c0,.75,0,1.58.08,2.49s.13,1.7.17,2.41a.67.67,0,0,1-.41.66,32.22,32.22,0,0,1-6.76,2A37,37,0,0,1,72,71.09ZM76,62.8V44.55c-.38-.08-.75-.16-1.12-.2s-.92-.09-1.37-.09a10.31,10.31,0,0,0-4.69,1.08A8.57,8.57,0,0,0,64,53.68,11.55,11.55,0,0,0,64.68,58a8,8,0,0,0,1.86,2.94,7.11,7.11,0,0,0,2.82,1.66,10.94,10.94,0,0,0,3.44.54c.62,0,1.2,0,1.74-.09A3.62,3.62,0,0,0,76,62.8Z"/></g></g></g></svg>