<svg id="Layer_1" data-name="Layer 1" xmlns="http://www.w3.org/2000/svg" viewBox="0 0 100 100"><defs><style>.cls-1{fill:#00005b;}.cls-2{fill:#99f;}</style></defs><g id="Layer_2" data-name="Layer 2"><g id="Surfaces"><g id="Video_Audio_Surface" data-name="Video Audio Surface"><g id="Outline_no_shadow" data-name="Outline no shadow"><path class="cls-1" d="M17.7,1.64H82.23a17.68,17.68,0,0,1,17.7,17.7v62a17.68,17.68,0,0,1-17.7,17.69H17.7A17.68,17.68,0,0,1,0,81.38v-62A17.68,17.68,0,0,1,17.7,1.64Z"/></g></g></g><g id="Outlined_Mnemonics_Logos" data-name="Outlined Mnemonics Logos"><g id="Ae"><path class="cls-2" d="M40.14,59.93H24.65l-3.17,9.83a.71.71,0,0,1-.79.58H12.87c-.46,0-.59-.25-.46-.75l13.4-38.43c.13-.41.25-.79.42-1.29a14.2,14.2,0,0,0,.25-2.7.42.42,0,0,1,.33-.46H37.6c.29,0,.5.12.54.33l15.2,42.68c.12.46,0,.67-.42.67h-8.7a.64.64,0,0,1-.67-.46ZM27.06,51.65H37.64c-.25-.88-.58-1.92-1-3s-.75-2.33-1.12-3.58-.79-2.54-1.21-3.83-.79-2.5-1.12-3.71-.63-2.24-.92-3.24h-.08a53.22,53.22,0,0,1-1.42,5.37c-.62,2-1.25,4.08-1.91,6.16S27.69,49.9,27.06,51.65Z"/><path class="cls-2" d="M78,56.1H64.83a9.14,9.14,0,0,0,1.29,3.71,6.63,6.63,0,0,0,3,2.5,12.93,12.93,0,0,0,5.33,1,25,25,0,0,0,4.33-.46,15.6,15.6,0,0,0,3.7-1c.21-.16.34-.08.34.34v6.37a1.82,1.82,0,0,1-.09.5,1,1,0,0,1-.29.29,17.86,17.86,0,0,1-4.16,1.25,28.6,28.6,0,0,1-5.91.5,19.72,19.72,0,0,1-8-1.46,13.89,13.89,0,0,1-5.24-4,15.22,15.22,0,0,1-2.88-5.45,21.38,21.38,0,0,1-.87-6.08,21.1,21.1,0,0,1,1-6.62,17.08,17.08,0,0,1,3.12-5.7,15.11,15.11,0,0,1,5-4,15.7,15.7,0,0,1,6.95-1.29A15,15,0,0,1,78,38a11.52,11.52,0,0,1,4.37,3.33A15.33,15.33,0,0,1,84.9,46a16.38,16.38,0,0,1,.79,5.08c0,1,0,1.87-.08,2.66s-.13,1.38-.17,1.75a.62.62,0,0,1-.58.54c-.25,0-.71,0-1.38.09a20.43,20.43,0,0,1-2.41.12C80.11,56.27,79.11,56.1,78,56.1ZM64.83,50h8.78C74.7,50,75.49,50,76,50a2,2,0,0,0,1-.33v-.42a4.69,4.69,0,0,0-.25-1.54,5.5,5.5,0,0,0-5.41-3.83A5.89,5.89,0,0,0,65.74,47,8.48,8.48,0,0,0,64.83,50Z"/></g></g></g></svg>