<svg id="Layer_1" data-name="Layer 1" xmlns="http://www.w3.org/2000/svg" viewBox="0 0 100 100"><defs><style>.cls-1{fill:#001e36;}.cls-2{fill:#31a8ff;}</style></defs><g id="Layer_2" data-name="Layer 2"><g id="Surfaces"><g id="Photo_Surface" data-name="Photo Surface"><g id="Outline_no_shadow" data-name="Outline no shadow"><path class="cls-1" d="M17.76,1.47H82.53a17.75,17.75,0,0,1,17.76,17.76V81.49A17.75,17.75,0,0,1,82.53,99.25H17.76A17.75,17.75,0,0,1,0,81.49V19.23A17.75,17.75,0,0,1,17.76,1.47Z"/></g></g></g><g id="Outlined_Mnemonics_Logos" data-name="Outlined Mnemonics Logos"><g id="Ps"><path class="cls-2" d="M22.56,70V27c0-.29.13-.46.42-.46.71,0,1.38,0,2.34,0s2.05,0,3.18-.08,2.34,0,3.63-.09,2.55,0,3.81,0a24.48,24.48,0,0,1,8.6,1.3,15,15,0,0,1,5.6,3.42,13.31,13.31,0,0,1,3,4.77,15.88,15.88,0,0,1,1,5.43,15,15,0,0,1-2.5,8.9,14.35,14.35,0,0,1-6.73,5.1,27.2,27.2,0,0,1-9.4,1.42c-1,0-1.67,0-2.09,0a17.42,17.42,0,0,0-1.8-.05V70a.52.52,0,0,1-.46.58h-8.1C22.73,70.58,22.56,70.42,22.56,70Zm9.11-35.39v14c.59,0,1.13.08,1.63.08h2.22a15.59,15.59,0,0,0,4.8-.75,7.19,7.19,0,0,0,3.43-2.22A6.42,6.42,0,0,0,45,41.5a6.79,6.79,0,0,0-1-3.72,6,6,0,0,0-2.92-2.38,12.26,12.26,0,0,0-4.93-.84c-1.09,0-2,0-2.84,0a9.12,9.12,0,0,0-1.72,0Z"/><path class="cls-2" d="M80.23,46.14a14.73,14.73,0,0,0-4-1.42,21.76,21.76,0,0,0-4.68-.55,8.43,8.43,0,0,0-2.51.3,2.15,2.15,0,0,0-1.3.83,2.31,2.31,0,0,0-.33,1.13,1.88,1.88,0,0,0,.42,1.09,4.79,4.79,0,0,0,1.42,1.13c1,.5,2,1,3,1.37a31,31,0,0,1,6.43,3,9.71,9.71,0,0,1,3.3,3.47,9,9,0,0,1,1,4.31,9.7,9.7,0,0,1-1.63,5.55,10.4,10.4,0,0,1-4.68,3.72A19.05,19.05,0,0,1,69,71.46a29.23,29.23,0,0,1-5.68-.54,16.7,16.7,0,0,1-4.27-1.34.81.81,0,0,1-.45-.79V61.52a.46.46,0,0,1,.16-.38.34.34,0,0,1,.38,0,18,18,0,0,0,5.18,2,19.37,19.37,0,0,0,4.93.63,7.9,7.9,0,0,0,3.47-.59,1.93,1.93,0,0,0,1.13-1.75,2.24,2.24,0,0,0-1-1.68,17.42,17.42,0,0,0-4.09-2,25.45,25.45,0,0,1-5.93-3,10.75,10.75,0,0,1-3.18-3.55,9,9,0,0,1-1-4.26A9.84,9.84,0,0,1,60.13,42a10.22,10.22,0,0,1,4.39-3.84,16.09,16.09,0,0,1,7.39-1.47,36,36,0,0,1,5.18.38,14.81,14.81,0,0,1,3.6,1,.74.74,0,0,1,.42.38,2.09,2.09,0,0,1,.08.5v6.81a.51.51,0,0,1-.21.42A1.15,1.15,0,0,1,80.23,46.14Z"/></g></g></g></svg>