<svg id="Layer_1" data-name="Layer 1" xmlns="http://www.w3.org/2000/svg" viewBox="0 0 100 100"><defs><style>.cls-1{fill:#300;}.cls-2{fill:#ff9a00;}</style></defs><g id="Layer_2" data-name="Layer 2"><g id="Surfaces"><g id="Drawing_Surface" data-name="Drawing Surface"><g id="Outline_no_shadow" data-name="Outline no shadow"><path class="cls-1" d="M17.85,1.67h64.5A17.68,17.68,0,0,1,100,19.36v62A17.68,17.68,0,0,1,82.35,99.05H17.85A17.67,17.67,0,0,1,.17,81.36v-62A17.67,17.67,0,0,1,17.85,1.67Z"/></g></g></g><g id="Outlined_Mnemonics_Logos" data-name="Outlined Mnemonics Logos"><g id="Ai"><path class="cls-2" d="M48.56,60.1H33.08l-3.16,9.78a.73.73,0,0,1-.79.58H21.31c-.46,0-.59-.25-.46-.75l13.4-38.58c.12-.41.25-.87.41-1.37a14.23,14.23,0,0,0,.25-2.71.41.41,0,0,1,.34-.45H46c.34,0,.5.12.55.33L61.76,69.79c.12.46,0,.67-.42.67h-8.7A.63.63,0,0,1,52,70ZM35.5,51.65H46.07c-.25-.88-.59-1.92-1-3s-.75-2.33-1.12-3.58-.79-2.54-1.21-3.83-.79-2.49-1.12-3.7-.63-2.25-.92-3.24h-.08a53.75,53.75,0,0,1-1.42,5.36c-.62,2-1.25,4.08-1.91,6.16s-1.21,4.08-1.83,5.83Z"/><path class="cls-2" d="M70.83,33.71a5.19,5.19,0,0,1-3.71-1.45,5.45,5.45,0,0,1-1.41-3.83,4.91,4.91,0,0,1,1.5-3.71,5.35,5.35,0,0,1,3.7-1.45,5,5,0,0,1,3.79,1.45,5.29,5.29,0,0,1,1.37,3.71,5.28,5.28,0,0,1-1.46,3.83A4.88,4.88,0,0,1,70.83,33.71ZM66.17,69.83v-32c0-.42.16-.58.54-.58H75c.37,0,.54.21.54.58v32c0,.46-.17.67-.54.67H66.79C66.37,70.5,66.17,70.25,66.17,69.83Z"/></g></g></g></svg>