<svg id="Layer_1" data-name="Layer 1" xmlns="http://www.w3.org/2000/svg" viewBox="0 0 100 100"><defs><style>.cls-1{fill:#0d528a;}.cls-2{fill:#f5792a;}</style></defs><path class="cls-1" d="M52.11,50.91a11.75,11.75,0,0,1,4.25-8.29,14.42,14.42,0,0,1,18.29,0A11.74,11.74,0,0,1,78.9,50.9a11.51,11.51,0,0,1-3.58,8.9,14.35,14.35,0,0,1-19.63,0,11.5,11.5,0,0,1-3.58-8.89"/><path class="cls-2" d="M30.78,57.59a24.9,24.9,0,0,0,1.06,5.78,30.54,30.54,0,0,0,6.58,11.4A34.22,34.22,0,0,0,49.94,83,37.64,37.64,0,0,0,80.18,83a34.06,34.06,0,0,0,11.51-8.3,30.62,30.62,0,0,0,6.58-11.42,28.82,28.82,0,0,0,1.24-6.37,29.49,29.49,0,0,0-4.4-17.82,32.18,32.18,0,0,0-7.66-8.44h0l-31-23.8-.08-.06a6.9,6.9,0,0,0-7.69,0c-2.26,1.58-2.51,4.2-.5,5.85h0l12.92,10.5-39.39.05h0c-3.26,0-6.39,2.14-7,4.84s1.58,5,5,5h0l20,0L4,60.39l-.14.1C.46,63.07-.63,67.35,1.49,70.05s6.72,2.76,10.11,0L31.05,54.16a30,30,0,0,0-.27,3.43Zm50,7.2a22.47,22.47,0,0,1-31.38,0,18.66,18.66,0,0,1-4.28-6.71,17.3,17.3,0,0,1-1-7.49,17.65,17.65,0,0,1,2.14-7A19.58,19.58,0,0,1,51,37.92a22.67,22.67,0,0,1,28.08,0,19.49,19.49,0,0,1,4.76,5.65A17.54,17.54,0,0,1,85,58.07a18.79,18.79,0,0,1-4.28,6.72"/></svg>