<svg id="Layer_1" data-name="Layer 1" xmlns="http://www.w3.org/2000/svg" viewBox="0 0 100 100"><defs><style>.cls-1{fill:#0acf83;}.cls-2{fill:#a259ff;}.cls-3{fill:#f24e1e;}.cls-4{fill:#ff7262;}.cls-5{fill:#1abcfe;}</style></defs><path id="path0_fill" data-name="path0 fill" class="cls-1" d="M32.46,99.94A16.68,16.68,0,0,0,49.13,83.27V66.61H32.46a16.67,16.67,0,1,0,0,33.33Z"/><path id="path1_fill" data-name="path1 fill" class="cls-2" d="M15.79,49.94A16.68,16.68,0,0,1,32.46,33.27H49.13V66.61H32.46A16.68,16.68,0,0,1,15.79,49.94Z"/><path id="path1_fill-2" data-name="path1 fill" class="cls-3" d="M15.79,16.61A16.68,16.68,0,0,1,32.46-.06H49.13V33.27H32.46A16.67,16.67,0,0,1,15.79,16.61Z"/><path id="path2_fill" data-name="path2 fill" class="cls-4" d="M49.13-.06H65.79a16.67,16.67,0,1,1,0,33.33H49.13Z"/><path id="path3_fill" data-name="path3 fill" class="cls-5" d="M82.46,49.94A16.67,16.67,0,1,1,65.79,33.27,16.68,16.68,0,0,1,82.46,49.94Z"/></svg>