<svg id="Layer_1" data-name="Layer 1" xmlns="http://www.w3.org/2000/svg" viewBox="0 0 100 100"><defs><style>.cls-1{fill:#f7df1e;}</style></defs><path class="cls-1" d="M0,0H100V100H0Z"/><path d="M26.31,83.55,34,78.92c1.47,2.62,2.82,4.83,6,4.83s5-1.21,5-5.9V45.9h9.4V78c0,9.73-5.71,14.16-14,14.16-7.51,0-11.88-3.89-14.09-8.59m33.22-1,7.65-4.42c2,3.28,4.63,5.7,9.26,5.7,3.9,0,6.38-1.95,6.38-4.63C82.82,76,80.27,74.83,76,73l-2.34-1c-6.78-2.88-11.28-6.51-11.28-14.16,0-7.05,5.37-12.42,13.76-12.42,6,0,10.27,2.08,13.35,7.52l-7.31,4.7c-1.61-2.89-3.36-4-6-4s-4.5,1.75-4.5,4c0,2.82,1.75,4,5.77,5.7l2.35,1c8,3.42,12.48,6.91,12.48,14.76,0,8.46-6.64,13.09-15.57,13.09-8.72,0-14.36-4.16-17.11-9.6"/></svg>