<svg id="Layer_1" data-name="Layer 1" xmlns="http://www.w3.org/2000/svg" xmlns:xlink="http://www.w3.org/1999/xlink" viewBox="0 0 100 100"><defs><style>.cls-1{fill:url(#linear-gradient);}.cls-2{fill:url(#linear-gradient-2);}</style><linearGradient id="linear-gradient" x1="-301.5" y1="161.03" x2="-301.47" y2="161" gradientTransform="matrix(1849.27, 0, 0, -1853.39, 557562.09, 298457.76)" gradientUnits="userSpaceOnUse"><stop offset="0" stop-color="#387eb8"/><stop offset="1" stop-color="#366994"/></linearGradient><linearGradient id="linear-gradient-2" x1="-301.83" y1="161.35" x2="-301.8" y2="161.32" gradientTransform="matrix(1849.27, 0, 0, -1853.39, 558206.46, 299085.16)" gradientUnits="userSpaceOnUse"><stop offset="0" stop-color="#ffe052"/><stop offset="1" stop-color="#ffc331"/></linearGradient></defs><path class="cls-1" d="M49.69.48c-25.39,0-23.81,11-23.81,11l0,11.41H50.15v3.43H16.29S0,24.49,0,50.11,14.22,74.83,14.22,74.83h8.46V62.94s-.45-14.19,14-14.19h24s13.5.22,13.5-13V13.76S76.24.48,49.69.48ZM36.33,8.15a4.36,4.36,0,0,1,4.36,4.35h0a4.36,4.36,0,0,1-4.35,4.36h0A4.35,4.35,0,0,1,32,12.52h0a4.36,4.36,0,0,1,4.35-4.36Z"/><path class="cls-2" d="M50.42,100c25.39,0,23.81-11,23.81-11l0-11.41H50V74.15H83.82S100.07,76,100.07,50.37,85.89,25.65,85.89,25.65H77.42V37.54s.46,14.19-14,14.19h-24s-13.51-.22-13.51,13.05V86.72S23.87,100,50.41,100Zm13.36-7.67A4.36,4.36,0,0,1,59.42,88h0a4.35,4.35,0,0,1,4.35-4.36h0A4.36,4.36,0,0,1,68.14,88h0a4.36,4.36,0,0,1-4.35,4.36Z"/></svg>