<svg id="Layer_1" data-name="Layer 1" xmlns="http://www.w3.org/2000/svg" viewBox="0 0 100 100"><defs><style>.cls-1{fill:#00d8ff;}</style></defs><path class="cls-1" d="M82.45,35.7c-1-.35-2.08-.68-3.18-1,.18-.73.35-1.45.49-2.16,2.41-11.68.84-21.09-4.53-24.18-5.15-3-13.57.12-22.08,7.53Q51.92,17,50.69,18.14c-.54-.52-1.09-1-1.63-1.51C40.14,8.72,31.21,5.38,25.85,8.49c-5.15,3-6.67,11.82-4.51,22.88.21,1.07.46,2.16.73,3.27-1.26.36-2.48.74-3.65,1.15C8,39.43,1.3,45.14,1.3,51.07c0,6.11,7.16,12.25,18,16,.86.29,1.75.57,2.67.83-.3,1.2-.55,2.38-.77,3.53-2.07,10.87-.45,19.5,4.68,22.46,5.3,3.06,14.19-.08,22.85-7.65.68-.6,1.37-1.24,2.06-1.9q1.34,1.29,2.67,2.43C61.89,94,70.17,96.88,75.3,93.91c5.29-3.07,7-12.34,4.78-23.62-.17-.87-.37-1.75-.59-2.64l1.83-.58c11.32-3.74,18.68-9.81,18.68-16C100,45.12,93.11,39.37,82.45,35.7ZM80,63.07c-.54.18-1.1.35-1.66.52a99.48,99.48,0,0,0-5-12.5,98,98,0,0,0,4.8-12.33q1.52.45,2.94.93c9.13,3.14,14.7,7.79,14.7,11.38C95.78,54.88,89.77,59.84,80,63.07Zm-4.06,8a35.73,35.73,0,0,1,.48,13c-.59,3.17-1.77,5.28-3.24,6.13-3.11,1.8-9.76-.54-16.93-6.71-.82-.71-1.65-1.47-2.48-2.27A98.3,98.3,0,0,0,62,70.78a98.8,98.8,0,0,0,13.37-2.06C75.61,69.53,75.79,70.33,75.94,71.11ZM35,90c-3,1.07-5.46,1.1-6.93.26-3.11-1.8-4.4-8.73-2.64-18,.2-1.06.44-2.16.72-3.27a100.2,100.2,0,0,0,13.3,1.92A101.5,101.5,0,0,0,47.88,81.3c-.63.61-1.26,1.19-1.88,1.73A35.81,35.81,0,0,1,35,90ZM20.71,63.05A35.54,35.54,0,0,1,9.2,56.93c-2.45-2.09-3.69-4.17-3.69-5.86,0-3.6,5.36-8.18,14.3-11.3C20.89,39.39,22,39,23.2,38.7A101.25,101.25,0,0,0,28,51.17a102,102,0,0,0-4.88,12.64C22.3,63.57,21.49,63.32,20.71,63.05Zm4.77-32.49c-1.85-9.48-.62-16.63,2.48-18.42,3.3-1.92,10.6.81,18.3,7.64.49.44,1,.9,1.48,1.37a101.31,101.31,0,0,0-8.41,10.41,103.91,103.91,0,0,0-13.17,2C25.9,32.57,25.67,31.55,25.48,30.56ZM68.06,41.07c-1-1.68-2-3.33-3-4.93,3.15.4,6.16.93,9,1.57a88.79,88.79,0,0,1-3.16,8.5Q69.55,43.66,68.06,41.07ZM50.69,24.16a87.11,87.11,0,0,1,5.81,7c-1.93-.1-3.88-.14-5.85-.14s-3.89,0-5.81.13C46.75,28.64,48.72,26.29,50.69,24.16ZM33.22,41.1q-1.45,2.55-2.79,5.11c-1.22-2.91-2.27-5.78-3.13-8.54,2.81-.63,5.82-1.15,9-1.54q-1.56,2.43-3,5Zm3.12,25.2a90.33,90.33,0,0,1-9.1-1.46c.87-2.82,2-5.74,3.2-8.71.88,1.7,1.82,3.41,2.8,5.1h0Q34.74,63.83,36.34,66.3Zm14.47,12c-2-2.16-4-4.55-5.94-7.11,1.89.07,3.82.11,5.78.11s4,0,6-.13C54.68,73.75,52.74,76.14,50.81,78.27ZM70.94,56a88.46,88.46,0,0,1,3.31,8.69A89.93,89.93,0,0,1,65,66.23c1-1.63,2-3.3,3-5S70,57.71,70.94,56ZM64.42,59.1c-1.54,2.67-3.13,5.23-4.73,7.64-2.93.21-6,.31-9,.31s-6.06-.09-8.94-.28c-1.67-2.44-3.29-5-4.82-7.65h0c-1.53-2.64-2.94-5.3-4.21-7.95q1.91-4,4.19-8h0C38.4,40.57,40,38,41.66,35.59c2.94-.22,6-.34,9-.34h0c3.05,0,6.07.12,9,.34,1.63,2.41,3.23,4.95,4.76,7.6s3,5.32,4.25,7.92Q66.74,55.07,64.42,59.1ZM73.12,12c3.31,1.91,4.59,9.59,2.51,19.67-.13.65-.28,1.3-.44,2A100.46,100.46,0,0,0,62,31.56a99.1,99.1,0,0,0-8.34-10.41c.76-.73,1.51-1.43,2.27-2.08C63.21,12.72,70,10.22,73.12,12ZM50.65,42.25a8.82,8.82,0,1,1-8.82,8.82A8.81,8.81,0,0,1,50.65,42.25Z"/></svg>